<svg xmlns="http://www.w3.org/2000/svg" style="display:none">
    <symbol id="ui-card-stack" viewBox="0 0 330 264">
        <!-- твій контент -->
        <rect x="1.5" y="1.5" width="327" height="76" rx="5.5" fill="#263243" stroke="#A1D1D1" stroke-width="3"/>
        <rect x="1.5" y="93.5" width="327" height="77" rx="5.5" fill="#263243" stroke="#A1D1D1" stroke-width="3"/>
        <rect x="1.5" y="186.5" width="327" height="76" rx="5.5" fill="#263243" stroke="#A1D1D1" stroke-width="3"/>

        <rect x="283" y="32" width="18" height="18" rx="1.5" fill="#60A5FA"/>
        <rect x="235" y="32" width="18" height="18" rx="1.5" fill="#F472B6"/>
        <rect x="258" y="32" width="19" height="18" rx="1.5" fill="#F472B6"/>

        <rect x="283" y="124" width="18" height="19" rx="1.5" fill="#F472B6"/>
        <rect x="235" y="124" width="18" height="19" rx="1.5" fill="#F472B6"/>
        <rect x="258" y="124" width="19" height="19" rx="1.5" fill="#60A5FA"/>

        <rect x="283" y="217" width="18" height="18" rx="1.5" fill="#60A5FA"/>
        <rect x="235" y="217" width="18" height="18" rx="1.5" fill="#60A5FA"/>
        <rect x="258" y="217" width="19" height="18" rx="1.5" fill="#F472B6"/>
    </symbol>
</svg>
